<?xml version="1.0" standalone="no"?>
<!DOCTYPE svg PUBLIC "-//W3C//DTD SVG 20010904//EN"
 "http://www.w3.org/TR/2001/REC-SVG-20010904/DTD/svg10.dtd">
<svg version="1.0" xmlns="http://www.w3.org/2000/svg"
 width="700.000000pt" height="700.000000pt" viewBox="0 0 700.000000 700.000000"
 preserveAspectRatio="xMidYMid meet">
<metadata>
Created by potrace 1.14, written by Peter Selinger 2001-2017
</metadata>
<g transform="translate(0.000000,700.000000) scale(0.100000,-0.100000)"
fill="#000000" stroke="none">
<path d="M3298 6705 c-2 -2 -39 -6 -83 -10 -44 -4 -91 -8 -105 -10 -14 -2 -47
-7 -75 -10 -27 -3 -81 -13 -120 -20 -38 -8 -81 -16 -95 -19 -122 -21 -390
-105 -547 -171 -76 -32 -287 -134 -348 -169 -468 -262 -903 -686 -1176 -1145
-190 -319 -340 -710 -398 -1036 -6 -33 -13 -71 -16 -85 -3 -14 -7 -45 -10 -70
-3 -25 -7 -52 -10 -60 -18 -67 -26 -526 -12 -678 66 -723 370 -1402 857 -1916
79 -83 181 -181 235 -227 22 -19 42 -36 45 -39 3 -3 25 -21 50 -40 25 -19 47
-37 50 -40 8 -8 68 -52 140 -102 112 -78 241 -154 370 -218 69 -34 133 -66
142 -71 66 -34 278 -109 453 -162 71 -21 271 -65 330 -72 28 -3 59 -8 71 -10
11 -3 40 -7 65 -10 24 -3 64 -7 89 -10 25 -3 140 -7 255 -9 187 -3 280 1 423
19 23 3 63 8 90 11 87 10 296 56 417 90 733 211 1361 672 1791 1315 46 70 84
130 84 134 0 4 9 19 20 35 19 26 130 246 163 320 30 70 79 193 82 209 2 9 13
42 24 75 49 139 99 355 126 541 4 22 8 51 10 64 12 70 20 237 20 401 -1 217
-10 340 -41 520 -113 674 -437 1291 -927 1768 -93 91 -170 160 -201 181 -12 8
-23 18 -26 21 -14 19 -223 166 -322 228 -394 245 -870 411 -1313 458 -27 3
-63 7 -80 10 -36 5 -492 14 -497 9z m417 -589 c151 -15 226 -26 345 -52 606
-130 1154 -481 1536 -984 253 -334 448 -795 498 -1180 3 -25 8 -54 10 -65 8
-43 19 -216 19 -320 2 -314 -54 -638 -160 -925 -83 -226 -273 -562 -415 -732
-253 -307 -527 -528 -863 -698 -208 -106 -483 -202 -665 -234 -19 -3 -44 -8
-55 -10 -11 -2 -42 -7 -70 -10 -27 -4 -77 -11 -110 -15 -151 -21 -427 -18
-610 5 -196 24 -481 95 -600 148 -16 8 -41 17 -55 21 -42 12 -303 141 -366
181 -88 55 -167 107 -184 121 -177 138 -240 193 -340 294 -151 153 -286 328
-393 511 -170 289 -290 628 -332 938 -3 25 -8 52 -10 60 -23 92 -23 545 1 664
2 11 7 41 10 66 5 40 27 149 40 205 3 11 8 34 11 50 10 56 92 293 138 398 101
229 250 465 417 660 95 111 287 295 362 346 12 8 23 18 26 21 9 11 174 124
235 161 278 169 555 276 875 338 25 5 69 12 99 16 30 4 63 8 74 11 11 2 61 6
111 10 50 3 92 7 93 8 5 4 266 -2 328 -8z"/>
</g>
</svg>
